
<global>
amp_veltrack=0
ampeg_release=0.35
master-volume=-4.0
</global>

<group>
amp_veltrack=0
group_label=PP
xf_cccurve=gain
xfin_hicc1=42
xfout_hicc1=85
xfout_locc1=42

<region>
hikey=g6
hivel=127
lokey=f#6
lovel=0
offset=9120
pitch_keycenter=g6
sample=Violins2_marcato_PP_G6.opus
</region>

<region>
hikey=g5
hivel=127
lokey=f#5
lovel=0
offset=1065
pitch_keycenter=g5
sample=Violins2_marcato_PP_G5.opus
</region>

<region>
hikey=g4
hivel=127
lokey=f#4
lovel=0
offset=723
pitch_keycenter=g4
sample=Violins2_marcato_PP_G4.opus
</region>

<region>
hivel=127
key=g3
lovel=0
offset=15151
sample=Violins2_marcato_PP_G3.opus
</region>

<region>
hikey=f6
hivel=127
lokey=e6
lovel=0
offset=12022
pitch_keycenter=f6
sample=Violins2_marcato_PP_F6.opus
</region>

<region>
hikey=f5
hivel=127
lokey=e5
lovel=0
offset=11537
pitch_keycenter=f5
sample=Violins2_marcato_PP_F5.opus
</region>

<region>
hikey=f4
hivel=127
lokey=e4
lovel=0
offset=8000
pitch_keycenter=f4
sample=Violins2_marcato_PP_F4.opus
</region>

<region>
hikey=d#6
hivel=127
lokey=d6
lovel=0
offset=7814
pitch_keycenter=d#6
sample=Violins2_marcato_PP_D#6.opus
</region>

<region>
hikey=d#5
hivel=127
lokey=d5
lovel=0
offset=468
pitch_keycenter=d#5
sample=Violins2_marcato_PP_D#5.opus
</region>

<region>
hikey=d#4
hivel=127
lokey=d4
lovel=0
pitch_keycenter=d#4
sample=Violins2_marcato_PP_D#4.opus
</region>

<region>
hikey=c#6
hivel=127
lokey=c6
lovel=0
offset=377
pitch_keycenter=c#6
sample=Violins2_marcato_PP_C#6.opus
</region>

<region>
hikey=c#5
hivel=127
lokey=c5
lovel=0
pitch_keycenter=c#5
sample=Violins2_marcato_PP_C#5.opus
</region>

<region>
hikey=c#4
hivel=127
lokey=c4
lovel=0
offset=36
pitch_keycenter=c#4
sample=Violins2_marcato_PP_C#4.opus
</region>

<region>
hikey=E7
hivel=127
lokey=a#6
lovel=0
offset=13891
pitch_keycenter=B6
sample=Violins2_marcato_PP_B6.opus
</region>

<region>
hikey=b5
hivel=127
lokey=a#5
lovel=0
offset=530
pitch_keycenter=b5
sample=Violins2_marcato_PP_B5.opus
</region>

<region>
hikey=b4
hivel=127
lokey=a#4
lovel=0
offset=570
pitch_keycenter=b4
sample=Violins2_marcato_PP_B4.opus
</region>

<region>
hikey=b3
hivel=127
lokey=a#3
lovel=0
offset=820
pitch_keycenter=b3
sample=Violins2_marcato_PP_B3.opus
</region>

<region>
hikey=a6
hivel=127
lokey=g#6
lovel=0
offset=12601
pitch_keycenter=a6
sample=Violins2_marcato_PP_A6.opus
</region>

<region>
hikey=a5
hivel=127
lokey=g#5
lovel=0
offset=1878
pitch_keycenter=a5
sample=Violins2_marcato_PP_A5.opus
</region>

<region>
hikey=a4
hivel=127
lokey=g#4
lovel=0
pitch_keycenter=a4
sample=Violins2_marcato_PP_A4.opus
</region>

<region>
hikey=a3
hivel=127
lokey=g#3
lovel=0
offset=1003
pitch_keycenter=a3
sample=Violins2_marcato_PP_A3.opus
</region>
</group>

<group>
amp_veltrack=0
group_label=MF
xf_cccurve=gain
xfin_hicc1=85
xfin_locc1=42
xfout_hicc1=127
xfout_locc1=85

<region>
hikey=g6
hivel=127
lokey=f#6
lovel=0
offset=256
pitch_keycenter=g6
sample=Violins2_marcato_MF_G6.opus
</region>

<region>
hikey=g5
hivel=127
lokey=f#5
lovel=0
offset=84
pitch_keycenter=g5
sample=Violins2_marcato_MF_G5.opus
</region>

<region>
hikey=g4
hivel=127
lokey=f#4
lovel=0
offset=509
pitch_keycenter=g4
sample=Violins2_marcato_MF_G4.opus
</region>

<region>
hivel=127
key=g3
lovel=0
offset=38
sample=Violins2_marcato_MF_G3.opus
</region>

<region>
hikey=f6
hivel=127
lokey=e6
lovel=0
offset=733
pitch_keycenter=f6
sample=Violins2_marcato_MF_F6.opus
</region>

<region>
hikey=f5
hivel=127
lokey=e5
lovel=0
pitch_keycenter=f5
sample=Violins2_marcato_MF_F5.opus
</region>

<region>
hikey=f4
hivel=127
lokey=e4
lovel=0
pitch_keycenter=f4
sample=Violins2_marcato_MF_F4.opus
</region>

<region>
hikey=d#6
hivel=127
lokey=d6
lovel=0
offset=17
pitch_keycenter=d#6
sample=Violins2_marcato_MF_D#6.opus
</region>

<region>
hikey=d#5
hivel=127
lokey=d5
lovel=0
pitch_keycenter=d#5
sample=Violins2_marcato_MF_D#5.opus
</region>

<region>
hikey=d#4
hivel=127
lokey=d4
lovel=0
offset=285
pitch_keycenter=d#4
sample=Violins2_marcato_MF_D#4.opus
</region>

<region>
hikey=c#6
hivel=127
lokey=c6
lovel=0
offset=133
pitch_keycenter=c#6
sample=Violins2_marcato_MF_C#6.opus
</region>

<region>
hikey=c#5
hivel=127
lokey=c5
lovel=0
offset=101
pitch_keycenter=c#5
sample=Violins2_marcato_MF_C#5.opus
</region>

<region>
hikey=c#4
hivel=127
lokey=c4
lovel=0
pitch_keycenter=c#4
sample=Violins2_marcato_MF_C#4.opus
</region>

<region>
hikey=E7
hivel=127
lokey=a#6
lovel=0
offset=335
pitch_keycenter=B6
sample=Violins2_marcato_MF_B6.opus
</region>

<region>
hikey=b5
hivel=127
lokey=a#5
lovel=0
offset=408
pitch_keycenter=b5
sample=Violins2_marcato_MF_B5.opus
</region>

<region>
hikey=b4
hivel=127
lokey=a#4
lovel=0
offset=3
pitch_keycenter=b4
sample=Violins2_marcato_MF_B4.opus
</region>

<region>
hikey=b3
hivel=127
lokey=a#3
lovel=0
offset=123
pitch_keycenter=b3
sample=Violins2_marcato_MF_B3.opus
</region>

<region>
hikey=a6
hivel=127
lokey=g#6
lovel=0
offset=1393
pitch_keycenter=a6
sample=Violins2_marcato_MF_A6.opus
</region>

<region>
hikey=a5
hivel=127
lokey=g#5
lovel=0
offset=443
pitch_keycenter=a5
sample=Violins2_marcato_MF_A5.opus
</region>

<region>
hikey=a4
hivel=127
lokey=g#4
lovel=0
offset=61
pitch_keycenter=a4
sample=Violins2_marcato_MF_A4.opus
</region>

<region>
hikey=a3
hivel=127
lokey=g#3
lovel=0
offset=1772
pitch_keycenter=a3
sample=Violins2_marcato_MF_A3.opus
</region>
</group>

<group>
amp_veltrack=0
group_label=FF
xf_cccurve=gain
xfin_hicc1=127
xfin_locc1=85
xfout_hicc1=127
xfout_locc1=127

<region>
hikey=g6
hivel=127
lokey=f#6
lovel=0
pitch_keycenter=g6
sample=Violins2_marcato_FF_G6.opus
</region>

<region>
hikey=g5
hivel=127
lokey=f#5
lovel=0
pitch_keycenter=g5
sample=Violins2_marcato_FF_G5.opus
</region>

<region>
hikey=g4
hivel=127
lokey=f#4
lovel=0
pitch_keycenter=g4
sample=Violins2_marcato_FF_G4.opus
</region>

<region>
hivel=127
key=g3
lovel=0
sample=Violins2_marcato_FF_G3.opus
</region>

<region>
hikey=f6
hivel=127
lokey=e6
lovel=0
pitch_keycenter=f6
sample=Violins2_marcato_FF_F6.opus
</region>

<region>
hikey=f5
hivel=127
lokey=e5
lovel=0
pitch_keycenter=f5
sample=Violins2_marcato_FF_F5.opus
</region>

<region>
hikey=f4
hivel=127
lokey=e4
lovel=0
pitch_keycenter=f4
sample=Violins2_marcato_FF_F4.opus
</region>

<region>
hikey=d#6
hivel=127
lokey=d6
lovel=0
pitch_keycenter=d#6
sample=Violins2_marcato_FF_D#6.opus
</region>

<region>
hikey=d#5
hivel=127
lokey=d5
lovel=0
pitch_keycenter=d#5
sample=Violins2_marcato_FF_D#5.opus
</region>

<region>
hikey=d#4
hivel=127
lokey=d4
lovel=0
pitch_keycenter=d#4
sample=Violins2_marcato_FF_D#4.opus
</region>

<region>
hikey=c#6
hivel=127
lokey=c6
lovel=0
pitch_keycenter=c#6
sample=Violins2_marcato_FF_C#6.opus
</region>

<region>
hikey=c#5
hivel=127
lokey=c5
lovel=0
pitch_keycenter=c#5
sample=Violins2_marcato_FF_C#5.opus
</region>

<region>
hikey=c#4
hivel=127
lokey=c4
lovel=0
pitch_keycenter=c#4
sample=Violins2_marcato_FF_C#4.opus
</region>

<region>
hikey=E7
hivel=127
lokey=a#6
lovel=0
pitch_keycenter=B6
sample=Violins2_marcato_FF_B6.opus
</region>

<region>
hikey=b5
hivel=127
lokey=a#5
lovel=0
pitch_keycenter=b5
sample=Violins2_marcato_FF_B5.opus
</region>

<region>
hikey=b4
hivel=127
lokey=a#4
lovel=0
pitch_keycenter=b4
sample=Violins2_marcato_FF_B4.opus
</region>

<region>
hikey=b3
hivel=127
lokey=a#3
lovel=0
pitch_keycenter=b3
sample=Violins2_marcato_FF_B3.opus
</region>

<region>
hikey=a6
hivel=127
lokey=g#6
lovel=0
pitch_keycenter=a6
sample=Violins2_marcato_FF_A6.opus
</region>

<region>
hikey=a5
hivel=127
lokey=g#5
lovel=0
pitch_keycenter=a5
sample=Violins2_marcato_FF_A5.opus
</region>

<region>
hikey=a4
hivel=127
lokey=g#4
lovel=0
pitch_keycenter=a4
sample=Violins2_marcato_FF_A4.opus
</region>

<region>
hikey=a3
hivel=127
lokey=g#3
lovel=0
pitch_keycenter=a3
sample=Violins2_marcato_FF_A3.opus
</region>
</group>

<group>
amp_veltrack=0
group_label=RR1_0-42
seq_length=4
seq_position=1
volume=-6.0
xfin_hicc1=42
xfout_hicc1=84
xfout_locc1=42

<region>
end=45600
hivel=127
key=G6
lovel=0
offset=4731
sample=Violins2_staccato_PP_G6_RR1.opus
</region>

<region>
end=45600
hivel=127
key=G5
lovel=0
offset=4718
sample=Violins2_staccato_PP_G5_RR1.opus
</region>

<region>
end=45600
hivel=127
key=G4
lovel=0
offset=5137
sample=Violins2_staccato_PP_G4_RR1.opus
</region>

<region>
end=45600
hivel=127
key=G3
lovel=0
offset=1341
sample=Violins2_staccato_PP_G3_RR1.opus
</region>

<region>
end=45600
hivel=127
key=G#6
lovel=0
offset=902
sample=Violins2_staccato_PP_G#6_RR1.opus
</region>

<region>
end=45600
hivel=127
key=G#5
lovel=0
offset=5658
sample=Violins2_staccato_PP_G#5_RR1.opus
</region>

<region>
end=45600
hivel=127
key=G#4
lovel=0
offset=326
sample=Violins2_staccato_PP_G#4_RR1.opus
</region>

<region>
end=45600
hivel=127
key=G#3
lovel=0
offset=1248
sample=Violins2_staccato_PP_G#3_RR1.opus
</region>

<region>
end=45600
hivel=127
key=F6
lovel=0
offset=2529
sample=Violins2_staccato_PP_F6_RR1.opus
</region>

<region>
end=45600
hivel=127
key=F5
lovel=0
sample=Violins2_staccato_PP_F5_RR1.opus
</region>

<region>
end=45600
hivel=127
key=F4
lovel=0
offset=2893
sample=Violins2_staccato_PP_F4_RR1.opus
</region>

<region>
end=45600
hivel=127
key=F#6
lovel=0
offset=3865
sample=Violins2_staccato_PP_F#6_RR1.opus
</region>

<region>
end=45600
hivel=127
key=F#5
lovel=0
offset=1994
sample=Violins2_staccato_PP_F#5_RR1.opus
</region>

<region>
end=45600
hivel=127
key=F#4
lovel=0
offset=3804
sample=Violins2_staccato_PP_F#4_RR1.opus
</region>

<region>
end=45600
hivel=127
key=E6
lovel=0
offset=3837
sample=Violins2_staccato_PP_E6_RR1.opus
</region>

<region>
end=45600
hivel=127
key=E5
lovel=0
offset=5620
sample=Violins2_staccato_PP_E5_RR1.opus
</region>

<region>
end=45600
hivel=127
key=E4
lovel=0
offset=960
sample=Violins2_staccato_PP_E4_RR1.opus
</region>

<region>
end=45600
hivel=127
key=D6
lovel=0
offset=7012
sample=Violins2_staccato_PP_D6_RR1.opus
</region>

<region>
end=45600
hivel=127
key=D5
lovel=0
offset=2851
sample=Violins2_staccato_PP_D5_RR1.opus
</region>

<region>
end=45600
hivel=127
key=D4
lovel=0
offset=534
sample=Violins2_staccato_PP_D4_RR1.opus
</region>

<region>
end=45600
hivel=127
key=D#6
lovel=0
offset=2973
sample=Violins2_staccato_PP_D#6_RR1.opus
</region>

<region>
end=45600
hivel=127
key=D#5
lovel=0
sample=Violins2_staccato_PP_D#5_RR1.opus
</region>

<region>
end=45600
hivel=127
key=D#4
lovel=0
offset=313
sample=Violins2_staccato_PP_D#4_RR1.opus
</region>

<region>
end=45600
hikey=E7
hivel=127
lokey=C7
lovel=0
offset=4477
pitch_keycenter=C7
sample=Violins2_staccato_PP_C7_RR1.opus
</region>

<region>
end=45600
hivel=127
key=C6
lovel=0
offset=2356
sample=Violins2_staccato_PP_C6_RR1.opus
</region>

<region>
end=45600
hivel=127
key=C5
lovel=0
offset=3570
sample=Violins2_staccato_PP_C5_RR1.opus
</region>

<region>
end=45600
hivel=127
key=C4
lovel=0
offset=1322
sample=Violins2_staccato_PP_C4_RR1.opus
</region>

<region>
end=45600
hivel=127
key=C#6
lovel=0
offset=6522
sample=Violins2_staccato_PP_C#6_RR1.opus
</region>

<region>
end=45600
hivel=127
key=C#5
lovel=0
offset=142
sample=Violins2_staccato_PP_C#5_RR1.opus
</region>

<region>
end=45600
hivel=127
key=C#4
lovel=0
offset=1087
sample=Violins2_staccato_PP_C#4_RR1.opus
</region>

<region>
end=45600
hivel=127
key=B6
lovel=0
offset=3432
sample=Violins2_staccato_PP_B6_RR1.opus
</region>

<region>
end=45600
hivel=127
key=B5
lovel=0
offset=5122
sample=Violins2_staccato_PP_B5_RR1.opus
</region>

<region>
end=45600
hivel=127
key=B4
lovel=0
offset=4500
sample=Violins2_staccato_PP_B4_RR1.opus
</region>

<region>
end=45600
hivel=127
key=B3
lovel=0
offset=1902
sample=Violins2_staccato_PP_B3_RR1.opus
</region>

<region>
end=45600
hivel=127
key=A6
lovel=0
sample=Violins2_staccato_PP_A6_RR1.opus
</region>

<region>
end=45600
hivel=127
key=A5
lovel=0
offset=2102
sample=Violins2_staccato_PP_A5_RR1.opus
</region>

<region>
end=45600
hivel=127
key=A4
lovel=0
offset=732
sample=Violins2_staccato_PP_A4_RR1.opus
</region>

<region>
end=45600
hivel=127
key=A3
lovel=0
offset=3221
sample=Violins2_staccato_PP_A3_RR1.opus
</region>

<region>
end=45600
hivel=127
key=A#6
lovel=0
sample=Violins2_staccato_PP_A#6_RR1.opus
</region>

<region>
end=45600
hivel=127
key=A#5
lovel=0
offset=1103
sample=Violins2_staccato_PP_A#5_RR1.opus
</region>

<region>
end=45600
hivel=127
key=A#4
lovel=0
offset=1851
sample=Violins2_staccato_PP_A#4_RR1.opus
</region>

<region>
end=45600
hivel=127
key=A#3
lovel=0
offset=2690
sample=Violins2_staccato_PP_A#3_RR1.opus
</region>
</group>

<group>
amp_veltrack=0
group_label=RR1_43-84
seq_length=4
seq_position=1
volume=-6.0
xfin_hicc1=84
xfin_locc1=43
xfout_hicc1=125
xfout_locc1=84

<region>
end=45600
hivel=127
key=G6
lovel=0
offset=113
sample=Violins2_staccato_MF_G6_RR1.opus
</region>

<region>
end=45600
hivel=127
key=G5
lovel=0
offset=410
sample=Violins2_staccato_MF_G5_RR1.opus
</region>

<region>
end=45600
hivel=127
key=G4
lovel=0
offset=508
sample=Violins2_staccato_MF_G4_RR1.opus
</region>

<region>
end=45600
hivel=127
key=G3
lovel=0
offset=1124
sample=Violins2_staccato_MF_G3_RR1.opus
</region>

<region>
end=45600
hivel=127
key=G#6
lovel=0
offset=1232
sample=Violins2_staccato_MF_G#6_RR1.opus
</region>

<region>
end=45600
hivel=127
key=G#5
lovel=0
offset=1837
sample=Violins2_staccato_MF_G#5_RR1.opus
</region>

<region>
end=45600
hivel=127
key=G#4
lovel=0
offset=913
sample=Violins2_staccato_MF_G#4_RR1.opus
</region>

<region>
end=45600
hivel=127
key=G#3
lovel=0
offset=1232
sample=Violins2_staccato_MF_G#3_RR1.opus
</region>

<region>
end=45600
hivel=127
key=F6
lovel=0
sample=Violins2_staccato_MF_F6_RR1.opus
</region>

<region>
end=45600
hivel=127
key=F5
lovel=0
offset=286
sample=Violins2_staccato_MF_F5_RR1.opus
</region>

<region>
end=45600
hivel=127
key=F4
lovel=0
sample=Violins2_staccato_MF_F4_RR1.opus
</region>

<region>
end=45600
hivel=127
key=F#6
lovel=0
offset=10
sample=Violins2_staccato_MF_F#6_RR1.opus
</region>

<region>
end=45600
hivel=127
key=F#5
lovel=0
offset=742
sample=Violins2_staccato_MF_F#5_RR1.opus
</region>

<region>
end=45600
hivel=127
key=F#4
lovel=0
offset=1093
sample=Violins2_staccato_MF_F#4_RR1.opus
</region>

<region>
end=45600
hivel=127
key=E6
lovel=0
offset=1626
sample=Violins2_staccato_MF_E6_RR1.opus
</region>

<region>
end=45600
hivel=127
key=E5
lovel=0
offset=533
sample=Violins2_staccato_MF_E5_RR1.opus
</region>

<region>
end=45600
hivel=127
key=E4
lovel=0
offset=662
sample=Violins2_staccato_MF_E4_RR1.opus
</region>

<region>
end=45600
hivel=127
key=D6
lovel=0
offset=455
sample=Violins2_staccato_MF_D6_RR1.opus
</region>

<region>
end=45600
hivel=127
key=D5
lovel=0
sample=Violins2_staccato_MF_D5_RR1.opus
</region>

<region>
end=45600
hivel=127
key=D4
lovel=0
sample=Violins2_staccato_MF_D4_RR1.opus
</region>

<region>
end=45600
hivel=127
key=D#6
lovel=0
offset=823
sample=Violins2_staccato_MF_D#6_RR1.opus
</region>

<region>
end=45600
hivel=127
key=D#5
lovel=0
offset=774
sample=Violins2_staccato_MF_D#5_RR1.opus
</region>

<region>
end=45600
hivel=127
key=d#4
lovel=0
offset=473
sample=Violins2_staccato_MF_D#4_RR1.opus
</region>

<region>
end=45600
hikey=E7
hivel=127
lokey=C7
lovel=0
offset=627
pitch_keycenter=C7
sample=Violins2_staccato_MF_C7_RR1.opus
</region>

<region>
end=45600
hivel=127
key=C6
lovel=0
offset=1214
sample=Violins2_staccato_MF_C6_RR1.opus
</region>

<region>
end=45600
hivel=127
key=C5
lovel=0
sample=Violins2_staccato_MF_C5_RR1.opus
</region>

<region>
end=45600
hivel=127
key=C4
lovel=0
offset=605
sample=Violins2_staccato_MF_C4_RR1.opus
</region>

<region>
end=45600
hivel=127
key=C#6
lovel=0
offset=637
sample=Violins2_staccato_MF_C#6_RR1.opus
</region>

<region>
end=45600
hivel=127
key=C#5
lovel=0
sample=Violins2_staccato_MF_C#5_RR1.opus
</region>

<region>
end=45600
hivel=127
key=C#4
lovel=0
offset=339
sample=Violins2_staccato_MF_C#4_RR1.opus
</region>

<region>
end=45600
hivel=127
key=B6
lovel=0
offset=177
sample=Violins2_staccato_MF_B6_RR1.opus
</region>

<region>
end=45600
hivel=127
key=B5
lovel=0
offset=1606
sample=Violins2_staccato_MF_B5_RR1.opus
</region>

<region>
end=45600
hivel=127
key=B4
lovel=0
offset=1234
sample=Violins2_staccato_MF_B4_RR1.opus
</region>

<region>
end=45600
hivel=127
key=B3
lovel=0
offset=234
sample=Violins2_staccato_MF_B3_RR1.opus
</region>

<region>
end=45600
hivel=127
key=A6
lovel=0
offset=1035
sample=Violins2_staccato_MF_A6_RR1.opus
</region>

<region>
end=45600
hivel=127
key=A5
lovel=0
offset=854
sample=Violins2_staccato_MF_A5_RR1.opus
</region>

<region>
end=45600
hivel=127
key=A4
lovel=0
offset=1444
sample=Violins2_staccato_MF_A4_RR1.opus
</region>

<region>
end=45600
hivel=127
key=A3
lovel=0
offset=313
sample=Violins2_staccato_MF_A3_RR1.opus
</region>

<region>
end=45600
hivel=127
key=A#6
lovel=0
offset=299
sample=Violins2_staccato_MF_A#6_RR1.opus
</region>

<region>
end=45600
hivel=127
key=A#5
lovel=0
offset=73
sample=Violins2_staccato_MF_A#5_RR1.opus
</region>

<region>
end=45600
hivel=127
key=A#4
lovel=0
offset=466
sample=Violins2_staccato_MF_A#4_RR1.opus
</region>

<region>
end=45600
hivel=127
key=A#3
lovel=0
offset=687
sample=Violins2_staccato_MF_A#3_RR1.opus
</region>
</group>

<group>
amp_veltrack=0
group_label=RR1_85-127
seq_length=4
seq_position=1
volume=-6.0
xfin_hicc1=127
xfin_locc1=85
xfout_hicc1=127
xfout_locc1=127

<region>
end=45600
hivel=127
key=G6
lovel=0
offset=120
sample=Violins2_staccato_FF_G6_RR1.opus
tune=0.00
</region>

<region>
end=45600
hivel=127
key=G5
lovel=0
sample=Violins2_staccato_FF_G5_RR1.opus
tune=0.00
</region>

<region>
end=45600
hivel=127
key=G4
lovel=0
offset=881
sample=Violins2_staccato_FF_G4_RR1.opus
tune=0.00
</region>

<region>
end=45600
hivel=127
key=G3
lovel=0
sample=Violins2_staccato_FF_G3_RR1.opus
tune=0.00
</region>

<region>
end=45600
hivel=127
key=G#6
lovel=0
offset=248
sample=Violins2_staccato_FF_G#6_RR1.opus
tune=0.00
</region>

<region>
end=45600
hivel=127
key=G#5
lovel=0
offset=577
sample=Violins2_staccato_FF_G#5_RR1.opus
tune=0.00
</region>

<region>
end=45600
hivel=127
key=G#4
lovel=0
offset=1386
sample=Violins2_staccato_FF_G#4_RR1.opus
tune=0.00
</region>

<region>
end=45600
hivel=127
key=G#3
lovel=0
offset=1163
sample=Violins2_staccato_FF_G#3_RR1.opus
tune=0.00
</region>

<region>
end=45600
hivel=127
key=F6
lovel=0
offset=1325
sample=Violins2_staccato_FF_F6_RR1.opus
tune=0.00
</region>

<region>
end=45600
hivel=127
key=F5
lovel=0
offset=417
sample=Violins2_staccato_FF_F5_RR1.opus
tune=0.00
</region>

<region>
end=45600
hivel=127
key=F4
lovel=0
offset=1614
sample=Violins2_staccato_FF_F4_RR1.opus
tune=0.00
</region>

<region>
end=45600
hivel=127
key=F#6
lovel=0
sample=Violins2_staccato_FF_F#6_RR1.opus
tune=0.00
</region>

<region>
end=45600
hivel=127
key=F#5
lovel=0
offset=101
sample=Violins2_staccato_FF_F#5_RR1.opus
tune=0.00
</region>

<region>
end=45600
hivel=127
key=F#4
lovel=0
offset=488
sample=Violins2_staccato_FF_F#4_RR1.opus
tune=0.00
</region>

<region>
end=45600
hivel=127
key=e6
lovel=0
offset=863
sample=Violins2_staccato_FF_E6_RR1.opus
tune=0.00
</region>

<region>
end=45600
hivel=127
key=E5
lovel=0
offset=200
sample=Violins2_staccato_FF_E5_RR1.opus
tune=0.00
</region>

<region>
end=45600
hivel=127
key=e4
lovel=0
sample=Violins2_staccato_FF_E4_RR1.opus
tune=0.00
</region>

<region>
end=45600
hivel=127
key=D6
lovel=0
offset=265
sample=Violins2_staccato_FF_D6_RR1.opus
tune=0.00
</region>

<region>
end=45600
hivel=127
key=D5
lovel=0
offset=1475
sample=Violins2_staccato_FF_D5_RR1.opus
tune=0.00
</region>

<region>
end=45600
hivel=127
key=D4
lovel=0
offset=254
sample=Violins2_staccato_FF_D4_RR1.opus
tune=0.00
</region>

<region>
end=45600
hivel=127
key=D#6
lovel=0
offset=213
sample=Violins2_staccato_FF_D#6_RR1.opus
tune=0.00
</region>

<region>
end=45600
hivel=127
key=D#5
lovel=0
sample=Violins2_staccato_FF_D#5_RR1.opus
tune=0.00
</region>

<region>
end=45600
hivel=127
key=D#4
lovel=0
offset=145
sample=Violins2_staccato_FF_D#4_RR1.opus
tune=0.00
</region>

<region>
end=45600
hikey=E7
hivel=127
lokey=C7
lovel=0
offset=271
pitch_keycenter=C7
sample=Violins2_staccato_FF_C7_RR1.opus
tune=0.00
</region>

<region>
end=45600
hivel=127
key=C6
lovel=0
offset=319
sample=Violins2_staccato_FF_C6_RR1.opus
tune=0.00
</region>

<region>
end=45600
hivel=127
key=C5
lovel=0
offset=383
sample=Violins2_staccato_FF_C5_RR1.opus
tune=0.00
</region>

<region>
end=45600
hivel=127
key=C4
lovel=0
offset=1499
sample=Violins2_staccato_FF_C4_RR1.opus
tune=0.00
</region>

<region>
end=45600
hivel=127
key=C#6
lovel=0
offset=573
sample=Violins2_staccato_FF_C#6_RR1.opus
tune=0.00
</region>

<region>
end=45600
hivel=127
key=C#5
lovel=0
offset=1389
sample=Violins2_staccato_FF_C#5_RR1.opus
tune=0.00
</region>

<region>
end=45600
hivel=127
key=C#4
lovel=0
offset=392
sample=Violins2_staccato_FF_C#4_RR1.opus
tune=0.00
</region>

<region>
end=45600
hivel=127
key=B6
lovel=0
offset=342
sample=Violins2_staccato_FF_B6_RR1.opus
tune=0.00
</region>

<region>
end=45600
hivel=127
key=B5
lovel=0
offset=65
sample=Violins2_staccato_FF_B5_RR1.opus
tune=0.00
</region>

<region>
end=45600
hivel=127
key=B4
lovel=0
sample=Violins2_staccato_FF_B4_RR1.opus
tune=0.00
</region>

<region>
end=45600
hivel=127
key=B3
lovel=0
offset=766
sample=Violins2_staccato_FF_B3_RR1.opus
tune=0.00
</region>

<region>
end=45600
hivel=127
key=A6
lovel=0
sample=Violins2_staccato_FF_A6_RR1.opus
tune=0.00
</region>

<region>
end=45600
hivel=127
key=A5
lovel=0
offset=1581
sample=Violins2_staccato_FF_A5_RR1.opus
tune=0.00
</region>

<region>
end=45600
hivel=127
key=A4
lovel=0
offset=189
sample=Violins2_staccato_FF_A4_RR1.opus
tune=0.00
</region>

<region>
end=45600
hivel=127
key=A3
lovel=0
sample=Violins2_staccato_FF_A3_RR1.opus
tune=0.00
</region>

<region>
end=45600
hivel=127
key=A#6
lovel=0
offset=353
sample=Violins2_staccato_FF_A#6_RR1.opus
tune=0.00
</region>

<region>
end=45600
hivel=127
key=A#5
lovel=0
offset=193
sample=Violins2_staccato_FF_A#5_RR1.opus
tune=0.00
</region>

<region>
end=45600
hivel=127
key=A#4
lovel=0
offset=867
sample=Violins2_staccato_FF_A#4_RR1.opus
tune=0.00
</region>

<region>
end=45600
hivel=127
key=A#3
lovel=0
offset=281
sample=Violins2_staccato_FF_A#3_RR1.opus
tune=0.00
</region>
</group>

<group>
amp_veltrack=0
group_label=RR2_0-42
seq_length=4
seq_position=2
volume=-6.0
xfin_hicc1=42
xfout_hicc1=84
xfout_locc1=42

<region>
end=45600
hivel=127
key=G6
lovel=0
offset=4019
sample=Violins2_staccato_PP_G6_RR2.opus
</region>

<region>
end=45600
hivel=127
key=G5
lovel=0
offset=2629
sample=Violins2_staccato_PP_G5_RR2.opus
</region>

<region>
end=45600
hivel=127
key=G4
lovel=0
offset=4539
sample=Violins2_staccato_PP_G4_RR2.opus
</region>

<region>
end=45600
hivel=127
key=G3
lovel=0
offset=1988
sample=Violins2_staccato_PP_G3_RR2.opus
</region>

<region>
end=45600
hivel=127
key=G#6
lovel=0
offset=2711
sample=Violins2_staccato_PP_G#6_RR2.opus
</region>

<region>
end=45600
hivel=127
key=G#5
lovel=0
offset=4975
sample=Violins2_staccato_PP_G#5_RR2.opus
</region>

<region>
end=45600
hivel=127
key=G#4
lovel=0
offset=3913
sample=Violins2_staccato_PP_G#4_RR2.opus
</region>

<region>
end=45600
hivel=127
key=G#3
lovel=0
offset=4192
sample=Violins2_staccato_PP_G#3_RR2.opus
</region>

<region>
end=45600
hivel=127
key=F6
lovel=0
offset=3550
sample=Violins2_staccato_PP_F6_RR2.opus
</region>

<region>
end=45600
hivel=127
key=F5
lovel=0
offset=4136
sample=Violins2_staccato_PP_F5_RR2.opus
</region>

<region>
end=45600
hivel=127
key=F4
lovel=0
offset=1557
sample=Violins2_staccato_PP_F4_RR2.opus
</region>

<region>
end=45600
hivel=127
key=F#6
lovel=0
offset=3632
sample=Violins2_staccato_PP_F#6_RR2.opus
</region>

<region>
end=45600
hivel=127
key=F#5
lovel=0
offset=2004
sample=Violins2_staccato_PP_F#5_RR2.opus
</region>

<region>
end=45600
hivel=127
key=F#4
lovel=0
offset=5415
sample=Violins2_staccato_PP_F#4_RR2.opus
</region>

<region>
end=45600
hivel=127
key=E6
lovel=0
offset=3504
sample=Violins2_staccato_PP_E6_RR2.opus
</region>

<region>
end=45600
hivel=127
key=E5
lovel=0
offset=5296
sample=Violins2_staccato_PP_E5_RR2.opus
</region>

<region>
end=45600
hivel=127
key=e4
lovel=0
offset=935
sample=Violins2_staccato_PP_E4_RR2.opus
</region>

<region>
end=45600
hivel=127
key=D6
lovel=0
offset=5675
sample=Violins2_staccato_PP_D6_RR2.opus
</region>

<region>
end=45600
hivel=127
key=D5
lovel=0
offset=2587
sample=Violins2_staccato_PP_D5_RR2.opus
</region>

<region>
end=45600
hivel=127
key=D4
lovel=0
offset=999
sample=Violins2_staccato_PP_D4_RR2.opus
</region>

<region>
end=45600
hivel=127
key=D#6
lovel=0
offset=2922
sample=Violins2_staccato_PP_D#6_RR2.opus
</region>

<region>
end=45600
hivel=127
key=D#5
lovel=0
offset=4176
sample=Violins2_staccato_PP_D#5_RR2.opus
</region>

<region>
end=45600
hivel=127
key=D#4
lovel=0
offset=2826
sample=Violins2_staccato_PP_D#4_RR2.opus
</region>

<region>
end=45600
hikey=E7
hivel=127
lokey=C7
lovel=0
offset=3890
pitch_keycenter=C7
sample=Violins2_staccato_PP_C7_RR2.opus
</region>

<region>
end=45600
hivel=127
key=C6
lovel=0
offset=4376
sample=Violins2_staccato_PP_C6_RR2.opus
</region>

<region>
end=45600
hivel=127
key=C5
lovel=0
offset=3273
sample=Violins2_staccato_PP_C5_RR2.opus
</region>

<region>
end=45600
hivel=127
key=C4
lovel=0
offset=4341
sample=Violins2_staccato_PP_C4_RR2.opus
</region>

<region>
end=45600
hivel=127
key=C#6
lovel=0
offset=2876
sample=Violins2_staccato_PP_C#6_RR2.opus
</region>

<region>
end=45600
hivel=127
key=C#5
lovel=0
offset=410
sample=Violins2_staccato_PP_C#5_RR2.opus
</region>

<region>
end=45600
hivel=127
key=C#4
lovel=0
offset=386
sample=Violins2_staccato_PP_C#4_RR2.opus
</region>

<region>
end=45600
hivel=127
key=B6
lovel=0
offset=3978
sample=Violins2_staccato_PP_B6_RR2.opus
</region>

<region>
end=45600
hivel=127
key=B5
lovel=0
offset=2211
sample=Violins2_staccato_PP_B5_RR2.opus
</region>

<region>
end=45600
hivel=127
key=B4
lovel=0
offset=345
sample=Violins2_staccato_PP_B4_RR2.opus
</region>

<region>
end=45600
hivel=127
key=B3
lovel=0
offset=1473
sample=Violins2_staccato_PP_B3_RR2.opus
</region>

<region>
end=45600
hivel=127
key=A6
lovel=0
offset=3371
sample=Violins2_staccato_PP_A6_RR2.opus
</region>

<region>
end=45600
hivel=127
key=A5
lovel=0
offset=4977
sample=Violins2_staccato_PP_A5_RR2.opus
</region>

<region>
end=45600
hivel=127
key=A4
lovel=0
offset=1616
sample=Violins2_staccato_PP_A4_RR2.opus
</region>

<region>
end=45600
hivel=127
key=A3
lovel=0
offset=4626
sample=Violins2_staccato_PP_A3_RR2.opus
</region>

<region>
end=45600
hivel=127
key=A#6
lovel=0
offset=2230
sample=Violins2_staccato_PP_A#6_RR2.opus
</region>

<region>
end=45600
hivel=127
key=A#5
lovel=0
offset=660
sample=Violins2_staccato_PP_A#5_RR2.opus
</region>

<region>
end=45600
hivel=127
key=A#4
lovel=0
offset=3248
sample=Violins2_staccato_PP_A#4_RR2.opus
</region>

<region>
end=45600
hivel=127
key=A#3
lovel=0
offset=4211
sample=Violins2_staccato_PP_A#3_RR2.opus
</region>
</group>

<group>
amp_veltrack=0
group_label=RR2_43-84
seq_length=4
seq_position=2
volume=-6.0
xfin_hicc1=84
xfin_locc1=43
xfout_hicc1=125
xfout_locc1=84

<region>
end=45600
hivel=127
key=G6
lovel=0
offset=329
sample=Violins2_staccato_MF_G6_RR2.opus
</region>

<region>
end=45600
hivel=127
key=G5
lovel=0
offset=551
sample=Violins2_staccato_MF_G5_RR2.opus
</region>

<region>
end=45600
hivel=127
key=G4
lovel=0
offset=774
sample=Violins2_staccato_MF_G4_RR2.opus
</region>

<region>
end=45600
hivel=127
key=G3
lovel=0
offset=1807
sample=Violins2_staccato_MF_G3_RR2.opus
</region>

<region>
end=45600
hivel=127
key=G#6
lovel=0
offset=62
sample=Violins2_staccato_MF_G#6_RR2.opus
</region>

<region>
end=45600
hivel=127
key=G#5
lovel=0
offset=428
sample=Violins2_staccato_MF_G#5_RR2.opus
</region>

<region>
end=45600
hivel=127
key=G#4
lovel=0
offset=216
sample=Violins2_staccato_MF_G#4_RR2.opus
</region>

<region>
end=45600
hivel=127
key=G#3
lovel=0
offset=436
sample=Violins2_staccato_MF_G#3_RR2.opus
</region>

<region>
end=45600
hivel=127
key=F6
lovel=0
offset=520
sample=Violins2_staccato_MF_F6_RR2.opus
</region>

<region>
end=45600
hivel=127
key=F5
lovel=0
offset=629
sample=Violins2_staccato_MF_F5_RR2.opus
</region>

<region>
end=45600
hivel=127
key=F4
lovel=0
offset=206
sample=Violins2_staccato_MF_F4_RR2.opus
</region>

<region>
end=45600
hivel=127
key=F#6
lovel=0
offset=997
sample=Violins2_staccato_MF_F#6_RR2.opus
</region>

<region>
end=45600
hivel=127
key=F#5
lovel=0
offset=831
sample=Violins2_staccato_MF_F#5_RR2.opus
</region>

<region>
end=45600
hivel=127
key=F#4
lovel=0
offset=44
sample=Violins2_staccato_MF_F#4_RR2.opus
</region>

<region>
end=45600
hivel=127
key=E6
lovel=0
offset=467
sample=Violins2_staccato_MF_E6_RR2.opus
</region>

<region>
end=45600
hivel=127
key=E5
lovel=0
offset=1482
sample=Violins2_staccato_MF_E5_RR2.opus
</region>

<region>
end=45600
hivel=127
key=E4
lovel=0
offset=1137
sample=Violins2_staccato_MF_E4_RR2.opus
</region>

<region>
end=45600
hivel=127
key=D6
lovel=0
offset=263
sample=Violins2_staccato_MF_D6_RR2.opus
</region>

<region>
end=45600
hivel=127
key=D5
lovel=0
offset=2064
sample=Violins2_staccato_MF_D5_RR2.opus
</region>

<region>
end=45600
hivel=127
key=D4
lovel=0
offset=1027
sample=Violins2_staccato_MF_D4_RR2.opus
</region>

<region>
end=45600
hivel=127
key=D#6
lovel=0
offset=319
sample=Violins2_staccato_MF_D#6_RR2.opus
</region>

<region>
end=45600
hivel=127
key=D#5
lovel=0
offset=1038
sample=Violins2_staccato_MF_D#5_RR2.opus
</region>

<region>
end=45600
hivel=127
key=D#4
lovel=0
offset=664
sample=Violins2_staccato_MF_D#4_RR2.opus
</region>

<region>
end=45600
hikey=E7
hivel=127
lokey=C7
lovel=0
offset=1294
pitch_keycenter=C7
sample=Violins2_staccato_MF_C7_RR2.opus
</region>

<region>
end=45600
hivel=127
key=C6
lovel=0
offset=914
sample=Violins2_staccato_MF_C6_RR2.opus
</region>

<region>
end=45600
hivel=127
key=C5
lovel=0
offset=662
sample=Violins2_staccato_MF_C5_RR2.opus
</region>

<region>
end=45600
hivel=127
key=C4
lovel=0
offset=278
sample=Violins2_staccato_MF_C4_RR2.opus
</region>

<region>
end=45600
hivel=127
key=C#6
lovel=0
sample=Violins2_staccato_MF_C#6_RR2.opus
</region>

<region>
end=45600
hivel=127
key=C#5
lovel=0
offset=737
sample=Violins2_staccato_MF_C#5_RR2.opus
</region>

<region>
end=45600
hivel=127
key=C#4
lovel=0
offset=249
sample=Violins2_staccato_MF_C#4_RR2.opus
</region>

<region>
end=45600
hivel=127
key=B6
lovel=0
offset=1540
sample=Violins2_staccato_MF_B6_RR2.opus
</region>

<region>
end=45600
hivel=127
key=B5
lovel=0
offset=941
sample=Violins2_staccato_MF_B5_RR2.opus
</region>

<region>
end=45600
hivel=127
key=B4
lovel=0
sample=Violins2_staccato_MF_B4_RR2.opus
</region>

<region>
end=45600
hivel=127
key=B3
lovel=0
offset=5420
sample=Violins2_staccato_MF_B3_RR2.opus
</region>

<region>
end=45600
hivel=127
key=A6
lovel=0
sample=Violins2_staccato_MF_A6_RR2.opus
</region>

<region>
end=45600
hivel=127
key=A5
lovel=0
offset=622
sample=Violins2_staccato_MF_A5_RR2.opus
</region>

<region>
end=45600
hivel=127
key=A4
lovel=0
offset=375
sample=Violins2_staccato_MF_A4_RR2.opus
</region>

<region>
end=45600
hivel=127
key=A3
lovel=0
offset=583
sample=Violins2_staccato_MF_A3_RR2.opus
</region>

<region>
end=45600
hivel=127
key=A#6
lovel=0
offset=377
sample=Violins2_staccato_MF_A#6_RR2.opus
</region>

<region>
end=45600
hivel=127
key=A#5
lovel=0
offset=550
sample=Violins2_staccato_MF_A#5_RR2.opus
</region>

<region>
end=45600
hivel=127
key=A#4
lovel=0
sample=Violins2_staccato_MF_A#4_RR2.opus
</region>

<region>
end=45600
hivel=127
key=A#3
lovel=0
offset=1067
sample=Violins2_staccato_MF_A#3_RR2.opus
</region>
</group>

<group>
amp_veltrack=0
group_label=RR2_85-127
seq_length=4
seq_position=2
volume=-6.0
xfin_hicc1=127
xfin_locc1=85
xfout_hicc1=127
xfout_locc1=127

<region>
end=45600
hivel=127
key=G6
lovel=0
offset=238
sample=Violins2_staccato_FF_G6_RR2.opus
tune=0.00
</region>

<region>
end=45600
hivel=127
key=G5
lovel=0
sample=Violins2_staccato_FF_G5_RR2.opus
tune=0.00
</region>

<region>
end=45600
hivel=127
key=G4
lovel=0
offset=23
sample=Violins2_staccato_FF_G4_RR2.opus
tune=0.00
</region>

<region>
end=45600
hivel=127
key=G3
lovel=0
sample=Violins2_staccato_FF_G3_RR2.opus
tune=0.00
</region>

<region>
end=45600
hivel=127
key=G#6
lovel=0
sample=Violins2_staccato_FF_G#6_RR2.opus
tune=0.00
</region>

<region>
end=45600
hivel=127
key=G#5
lovel=0
offset=455
sample=Violins2_staccato_FF_G#5_RR2.opus
tune=0.00
</region>

<region>
end=45600
hivel=127
key=G#4
lovel=0
offset=1564
sample=Violins2_staccato_FF_G#4_RR2.opus
tune=0.00
</region>

<region>
end=45600
hivel=127
key=G#3
lovel=0
sample=Violins2_staccato_FF_G#3_RR2.opus
tune=0.00
</region>

<region>
end=45600
hivel=127
key=F6
lovel=0
offset=285
sample=Violins2_staccato_FF_F6_RR2.opus
tune=0.00
</region>

<region>
end=45600
hivel=127
key=F5
lovel=0
offset=126
sample=Violins2_staccato_FF_F5_RR2.opus
tune=0.00
</region>

<region>
end=45600
hivel=127
key=F4
lovel=0
offset=262
sample=Violins2_staccato_FF_F4_RR2.opus
tune=0.00
</region>

<region>
end=45600
hivel=127
key=F#6
lovel=0
offset=937
sample=Violins2_staccato_FF_F#6_RR2.opus
tune=0.00
</region>

<region>
end=45600
hivel=127
key=F#5
lovel=0
offset=433
sample=Violins2_staccato_FF_F#5_RR2.opus
tune=0.00
</region>

<region>
end=45600
hivel=127
key=F#4
lovel=0
offset=240
sample=Violins2_staccato_FF_F#4_RR2.opus
tune=0.00
</region>

<region>
end=45600
hivel=127
key=E6
lovel=0
sample=Violins2_staccato_FF_E6_RR2.opus
tune=0.00
</region>

<region>
end=45600
hivel=127
key=E5
lovel=0
sample=Violins2_staccato_FF_E5_RR2.opus
tune=0.00
</region>

<region>
end=45600
hivel=127
key=E4
lovel=0
offset=946
sample=Violins2_staccato_FF_E4_RR2.opus
tune=0.00
</region>

<region>
end=45600
hivel=127
key=D6
lovel=0
offset=309
sample=Violins2_staccato_FF_D6_RR2.opus
tune=0.00
</region>

<region>
end=45600
hivel=127
key=D5
lovel=0
sample=Violins2_staccato_FF_D5_RR2.opus
tune=0.00
</region>

<region>
end=45600
hivel=127
key=D4
lovel=0
offset=11
sample=Violins2_staccato_FF_D4_RR2.opus
tune=0.00
</region>

<region>
end=45600
hivel=127
key=D#6
lovel=0
offset=368
sample=Violins2_staccato_FF_D#6_RR2.opus
tune=0.00
</region>

<region>
end=45600
hivel=127
key=D#5
lovel=0
offset=728
sample=Violins2_staccato_FF_D#5_RR2.opus
tune=0.00
</region>

<region>
end=45600
hivel=127
key=D#4
lovel=0
offset=570
sample=Violins2_staccato_FF_D#4_RR2.opus
tune=0.00
</region>

<region>
end=45600
hikey=E7
hivel=127
lokey=C7
lovel=0
pitch_keycenter=C7
sample=Violins2_staccato_FF_C7_RR2.opus
tune=0.00
</region>

<region>
end=45600
hivel=127
key=C6
lovel=0
offset=1529
sample=Violins2_staccato_FF_C6_RR2.opus
tune=0.00
</region>

<region>
end=45600
hivel=127
key=C5
lovel=0
offset=3650
sample=Violins2_staccato_FF_C5_RR2.opus
tune=0.00
</region>

<region>
end=45600
hivel=127
key=C4
lovel=0
offset=259
sample=Violins2_staccato_FF_C4_RR2.opus
tune=0.00
</region>

<region>
end=45600
hivel=127
key=C#6
lovel=0
offset=401
sample=Violins2_staccato_FF_C#6_RR2.opus
tune=0.00
</region>

<region>
end=45600
hivel=127
key=C#5
lovel=0
offset=67
sample=Violins2_staccato_FF_C#5_RR2.opus
tune=0.00
</region>

<region>
end=45600
hivel=127
key=C#4
lovel=0
offset=361
sample=Violins2_staccato_FF_C#4_RR2.opus
tune=0.00
</region>

<region>
end=45600
hivel=127
key=B6
lovel=0
sample=Violins2_staccato_FF_B6_RR2.opus
tune=0.00
</region>

<region>
end=45600
hivel=127
key=B5
lovel=0
offset=348
sample=Violins2_staccato_FF_B5_RR2.opus
tune=0.00
</region>

<region>
end=45600
hivel=127
key=B4
lovel=0
offset=195
sample=Violins2_staccato_FF_B4_RR2.opus
tune=0.00
</region>

<region>
end=45600
hivel=127
key=B3
lovel=0
sample=Violins2_staccato_FF_B3_RR2.opus
tune=0.00
</region>

<region>
end=45600
hivel=127
key=A6
lovel=0
offset=548
sample=Violins2_staccato_FF_A6_RR2.opus
tune=0.00
</region>

<region>
end=45600
hivel=127
key=A5
lovel=0
offset=945
sample=Violins2_staccato_FF_A5_RR2.opus
tune=0.00
</region>

<region>
end=45600
hivel=127
key=A4
lovel=0
offset=659
sample=Violins2_staccato_FF_A4_RR2.opus
tune=0.00
</region>

<region>
end=45600
hivel=127
key=A3
lovel=0
sample=Violins2_staccato_FF_A3_RR2.opus
tune=0.00
</region>

<region>
end=45600
hivel=127
key=A#6
lovel=0
offset=88
sample=Violins2_staccato_FF_A#6_RR2.opus
tune=0.00
</region>

<region>
end=45600
hivel=127
key=A#5
lovel=0
offset=497
sample=Violins2_staccato_FF_A#5_RR2.opus
tune=0.00
</region>

<region>
end=45600
hivel=127
key=A#4
lovel=0
offset=527
sample=Violins2_staccato_FF_A#4_RR2.opus
tune=0.00
</region>

<region>
end=45600
hivel=127
key=A#3
lovel=0
offset=806
sample=Violins2_staccato_FF_A#3_RR2.opus
tune=0.00
</region>
</group>

<group>
amp_veltrack=0
group_label=RR3_0-42
seq_length=4
seq_position=3
volume=-6.0
xfin_hicc1=42
xfout_hicc1=84
xfout_locc1=42

<region>
end=45600
hivel=127
key=G6
lovel=0
offset=3869
sample=Violins2_staccato_PP_G6_RR3.opus
</region>

<region>
end=45600
hivel=127
key=G5
lovel=0
sample=Violins2_staccato_PP_G5_RR3.opus
</region>

<region>
end=45600
hivel=127
key=G4
lovel=0
offset=995
sample=Violins2_staccato_PP_G4_RR3.opus
</region>

<region>
end=45600
hivel=127
key=G3
lovel=0
offset=3974
sample=Violins2_staccato_PP_G3_RR3.opus
</region>

<region>
end=45600
hivel=127
key=G#6
lovel=0
offset=522
sample=Violins2_staccato_PP_G#6_RR3.opus
</region>

<region>
end=45600
hivel=127
key=G#5
lovel=0
offset=4482
sample=Violins2_staccato_PP_G#5_RR3.opus
</region>

<region>
end=45600
hivel=127
key=G#4
lovel=0
offset=4040
sample=Violins2_staccato_PP_G#4_RR3.opus
</region>

<region>
end=45600
hivel=127
key=G#3
lovel=0
offset=4376
sample=Violins2_staccato_PP_G#3_RR3.opus
</region>

<region>
end=45600
hivel=127
key=F6
lovel=0
offset=3907
sample=Violins2_staccato_PP_F6_RR3.opus
</region>

<region>
end=45600
hivel=127
key=F5
lovel=0
offset=1826
sample=Violins2_staccato_PP_F5_RR3.opus
</region>

<region>
end=45600
hivel=127
key=F4
lovel=0
offset=3847
sample=Violins2_staccato_PP_F4_RR3.opus
</region>

<region>
end=45600
hivel=127
key=F#6
lovel=0
offset=2696
sample=Violins2_staccato_PP_F#6_RR3.opus
</region>

<region>
end=45600
hivel=127
key=F#5
lovel=0
offset=3961
sample=Violins2_staccato_PP_F#5_RR3.opus
</region>

<region>
end=45600
hivel=127
key=F#4
lovel=0
offset=5419
sample=Violins2_staccato_PP_F#4_RR3.opus
</region>

<region>
end=45600
hivel=127
key=E6
lovel=0
offset=4964
sample=Violins2_staccato_PP_E6_RR3.opus
</region>

<region>
end=45600
hivel=127
key=E5
lovel=0
offset=3374
sample=Violins2_staccato_PP_E5_RR3.opus
</region>

<region>
end=45600
hivel=127
key=E4
lovel=0
offset=4783
sample=Violins2_staccato_PP_E4_RR3.opus
</region>

<region>
end=45600
hivel=127
key=D6
lovel=0
offset=4714
sample=Violins2_staccato_PP_D6_RR3.opus
</region>

<region>
end=45600
hivel=127
key=D5
lovel=0
sample=Violins2_staccato_PP_D5_RR3.opus
</region>

<region>
end=45600
hivel=127
key=D4
lovel=0
offset=3172
sample=Violins2_staccato_PP_D4_RR3.opus
</region>

<region>
end=45600
hivel=127
key=D#6
lovel=0
offset=4252
sample=Violins2_staccato_PP_D#6_RR3.opus
</region>

<region>
end=45600
hivel=127
key=D#5
lovel=0
sample=Violins2_staccato_PP_D#5_RR3.opus
</region>

<region>
end=45600
hivel=127
key=D#4
lovel=0
offset=413
sample=Violins2_staccato_PP_D#4_RR3.opus
</region>

<region>
end=45600
hikey=E7
hivel=127
lokey=C7
lovel=0
offset=2112
pitch_keycenter=C7
sample=Violins2_staccato_PP_C7_RR3.opus
</region>

<region>
end=45600
hivel=127
key=C6
lovel=0
offset=3192
sample=Violins2_staccato_PP_C6_RR3.opus
</region>

<region>
end=45600
hivel=127
key=C5
lovel=0
sample=Violins2_staccato_PP_C5_RR3.opus
</region>

<region>
end=45600
hivel=127
key=C4
lovel=0
offset=3984
sample=Violins2_staccato_PP_C4_RR3.opus
</region>

<region>
end=45600
hivel=127
key=C#6
lovel=0
offset=1499
sample=Violins2_staccato_PP_C#6_RR3.opus
</region>

<region>
end=45600
hivel=127
key=C#5
lovel=0
sample=Violins2_staccato_PP_C#5_RR3.opus
</region>

<region>
end=45600
hivel=127
key=C#4
lovel=0
offset=237
sample=Violins2_staccato_PP_C#4_RR3.opus
</region>

<region>
end=45600
hivel=127
key=B6
lovel=0
offset=3215
sample=Violins2_staccato_PP_B6_RR3.opus
</region>

<region>
end=45600
hivel=127
key=B5
lovel=0
offset=3204
sample=Violins2_staccato_PP_B5_RR3.opus
</region>

<region>
end=45600
hivel=127
key=B4
lovel=0
offset=5492
sample=Violins2_staccato_PP_B4_RR3.opus
</region>

<region>
end=45600
hivel=127
key=B3
lovel=0
offset=813
sample=Violins2_staccato_PP_B3_RR3.opus
</region>

<region>
end=45600
hivel=127
key=A6
lovel=0
offset=2225
sample=Violins2_staccato_PP_A6_RR3.opus
</region>

<region>
end=45600
hivel=127
key=A5
lovel=0
offset=4871
sample=Violins2_staccato_PP_A5_RR3.opus
</region>

<region>
end=45600
hivel=127
key=A4
lovel=0
offset=2924
sample=Violins2_staccato_PP_A4_RR3.opus
</region>

<region>
end=45600
hivel=127
key=A3
lovel=0
offset=5146
sample=Violins2_staccato_PP_A3_RR3.opus
</region>

<region>
end=45600
hivel=127
key=A#6
lovel=0
offset=4050
sample=Violins2_staccato_PP_A#6_RR3.opus
</region>

<region>
end=45600
hivel=127
key=A#5
lovel=0
offset=1552
sample=Violins2_staccato_PP_A#5_RR3.opus
</region>

<region>
end=45600
hivel=127
key=A#4
lovel=0
offset=3100
sample=Violins2_staccato_PP_A#4_RR3.opus
</region>

<region>
end=45600
hivel=127
key=A#3
lovel=0
offset=2537
sample=Violins2_staccato_PP_A#3_RR3.opus
</region>
</group>

<group>
amp_veltrack=0
group_label=RR3_43-84
seq_length=4
seq_position=3
volume=-6.0
xfin_hicc1=84
xfin_locc1=43
xfout_hicc1=125
xfout_locc1=84

<region>
end=45600
hivel=127
key=G6
lovel=0
offset=98
sample=Violins2_staccato_MF_G6_RR3.opus
</region>

<region>
end=45600
hivel=127
key=G5
lovel=0
offset=773
sample=Violins2_staccato_MF_G5_RR3.opus
</region>

<region>
end=45600
hivel=127
key=G4
lovel=0
offset=4910
sample=Violins2_staccato_MF_G4_RR3.opus
</region>

<region>
end=45600
hivel=127
key=G3
lovel=0
sample=Violins2_staccato_MF_G3_RR3.opus
</region>

<region>
end=45600
hivel=127
key=G#6
lovel=0
offset=533
sample=Violins2_staccato_MF_G#6_RR3.opus
</region>

<region>
end=45600
hivel=127
key=G#5
lovel=0
offset=997
sample=Violins2_staccato_MF_G#5_RR3.opus
</region>

<region>
end=45600
hivel=127
key=G#4
lovel=0
offset=405
sample=Violins2_staccato_MF_G#4_RR3.opus
</region>

<region>
end=45600
hivel=127
key=G#3
lovel=0
offset=134
sample=Violins2_staccato_MF_G#3_RR3.opus
</region>

<region>
end=45600
hivel=127
key=F6
lovel=0
offset=726
sample=Violins2_staccato_MF_F6_RR3.opus
</region>

<region>
end=45600
hivel=127
key=F5
lovel=0
offset=4922
sample=Violins2_staccato_MF_F5_RR3.opus
</region>

<region>
end=45600
hivel=127
key=F4
lovel=0
offset=398
sample=Violins2_staccato_MF_F4_RR3.opus
</region>

<region>
end=45600
hivel=127
key=F#6
lovel=0
offset=643
sample=Violins2_staccato_MF_F#6_RR3.opus
</region>

<region>
end=45600
hivel=127
key=F#5
lovel=0
sample=Violins2_staccato_MF_F#5_RR3.opus
</region>

<region>
end=45600
hivel=127
key=F#4
lovel=0
offset=835
sample=Violins2_staccato_MF_F#4_RR3.opus
</region>

<region>
end=45600
hivel=127
key=E6
lovel=0
offset=153
sample=Violins2_staccato_MF_E6_RR3.opus
</region>

<region>
end=45600
hivel=127
key=E5
lovel=0
offset=331
sample=Violins2_staccato_MF_E5_RR3.opus
</region>

<region>
end=45600
hivel=127
key=E4
lovel=0
offset=1510
sample=Violins2_staccato_MF_E4_RR3.opus
</region>

<region>
end=45600
hivel=127
key=D6
lovel=0
offset=351
sample=Violins2_staccato_MF_D6_RR3.opus
</region>

<region>
end=45600
hivel=127
key=D5
lovel=0
offset=76
sample=Violins2_staccato_MF_D5_RR3.opus
</region>

<region>
end=45600
hivel=127
key=D4
lovel=0
offset=884
sample=Violins2_staccato_MF_D4_RR3.opus
</region>

<region>
end=45600
hivel=127
key=D#6
lovel=0
offset=930
sample=Violins2_staccato_MF_D#6_RR3.opus
</region>

<region>
end=45600
hivel=127
key=D#5
lovel=0
offset=3694
sample=Violins2_staccato_MF_D#5_RR3.opus
</region>

<region>
end=45600
hivel=127
key=D#4
lovel=0
offset=669
sample=Violins2_staccato_MF_D#4_RR3.opus
</region>

<region>
end=45600
hikey=E7
hivel=127
lokey=C7
lovel=0
offset=768
pitch_keycenter=C7
sample=Violins2_staccato_MF_C7_RR3.opus
</region>

<region>
end=45600
hivel=127
key=C6
lovel=0
offset=1019
sample=Violins2_staccato_MF_C6_RR3.opus
</region>

<region>
end=45600
hivel=127
key=C5
lovel=0
sample=Violins2_staccato_MF_C5_RR3.opus
</region>

<region>
end=45600
hivel=127
key=C4
lovel=0
sample=Violins2_staccato_MF_C4_RR3.opus
</region>

<region>
end=45600
hivel=127
key=C#6
lovel=0
offset=321
sample=Violins2_staccato_MF_C#6_RR3.opus
</region>

<region>
end=45600
hivel=127
key=C#5
lovel=0
offset=739
sample=Violins2_staccato_MF_C#5_RR3.opus
</region>

<region>
end=45600
hivel=127
key=C#4
lovel=0
offset=480
sample=Violins2_staccato_MF_C#4_RR3.opus
</region>

<region>
end=45600
hivel=127
key=B6
lovel=0
sample=Violins2_staccato_MF_B6_RR3.opus
</region>

<region>
end=45600
hivel=127
key=B5
lovel=0
offset=227
sample=Violins2_staccato_MF_B5_RR3.opus
</region>

<region>
end=45600
hivel=127
key=B4
lovel=0
offset=3761
sample=Violins2_staccato_MF_B4_RR3.opus
</region>

<region>
end=45600
hivel=127
key=B3
lovel=0
offset=154
sample=Violins2_staccato_MF_B3_RR3.opus
</region>

<region>
end=45600
hivel=127
key=A6
lovel=0
offset=1463
sample=Violins2_staccato_MF_A6_RR3.opus
</region>

<region>
end=45600
hivel=127
key=A5
lovel=0
offset=226
sample=Violins2_staccato_MF_A5_RR3.opus
</region>

<region>
end=45600
hivel=127
key=A4
lovel=0
offset=530
sample=Violins2_staccato_MF_A4_RR3.opus
</region>

<region>
end=45600
hivel=127
key=A3
lovel=0
offset=3715
sample=Violins2_staccato_MF_A3_RR3.opus
</region>

<region>
end=45600
hivel=127
key=A#6
lovel=0
offset=1369
sample=Violins2_staccato_MF_A#6_RR3.opus
</region>

<region>
end=45600
hivel=127
key=A#5
lovel=0
offset=984
sample=Violins2_staccato_MF_A#5_RR3.opus
</region>

<region>
end=45600
hivel=127
key=A#4
lovel=0
offset=1051
sample=Violins2_staccato_MF_A#4_RR3.opus
</region>

<region>
end=45600
hivel=127
key=A#3
lovel=0
offset=173
sample=Violins2_staccato_MF_A#3_RR3.opus
</region>
</group>

<group>
amp_veltrack=0
group_label=RR3_85-127
seq_length=4
seq_position=3
volume=-6.0
xfin_hicc1=127
xfin_locc1=85
xfout_hicc1=127
xfout_locc1=127

<region>
end=45600
hivel=127
key=G6
lovel=0
sample=Violins2_staccato_FF_G6_RR3.opus
tune=0.00
</region>

<region>
end=45600
hivel=127
key=G5
lovel=0
offset=770
sample=Violins2_staccato_FF_G5_RR3.opus
tune=0.00
</region>

<region>
end=45600
hivel=127
key=G4
lovel=0
sample=Violins2_staccato_FF_G4_RR3.opus
tune=0.00
</region>

<region>
end=45600
hivel=127
key=G3
lovel=0
offset=1647
sample=Violins2_staccato_FF_G3_RR3.opus
tune=0.00
</region>

<region>
end=45600
hivel=127
key=G#6
lovel=0
offset=402
sample=Violins2_staccato_FF_G#6_RR3.opus
tune=0.00
</region>

<region>
end=45600
hivel=127
key=G#5
lovel=0
offset=41
sample=Violins2_staccato_FF_G#5_RR3.opus
tune=0.00
</region>

<region>
end=45600
hivel=127
key=G#4
lovel=0
offset=463
sample=Violins2_staccato_FF_G#4_RR3.opus
tune=0.00
</region>

<region>
end=45600
hivel=127
key=G#3
lovel=0
offset=473
sample=Violins2_staccato_FF_G#3_RR3.opus
tune=0.00
</region>

<region>
end=45600
hivel=127
key=F6
lovel=0
sample=Violins2_staccato_FF_F6_RR3.opus
tune=0.00
</region>

<region>
end=45600
hivel=127
key=F5
lovel=0
offset=456
sample=Violins2_staccato_FF_F5_RR3.opus
tune=0.00
</region>

<region>
end=45600
hivel=127
key=F4
lovel=0
offset=70
sample=Violins2_staccato_FF_F4_RR3.opus
tune=0.00
</region>

<region>
end=45600
hivel=127
key=F#6
lovel=0
sample=Violins2_staccato_FF_F#6_RR3.opus
tune=0.00
</region>

<region>
end=45600
hivel=127
key=F#5
lovel=0
offset=164
sample=Violins2_staccato_FF_F#5_RR3.opus
tune=0.00
</region>

<region>
end=45600
hivel=127
key=F#4
lovel=0
offset=631
sample=Violins2_staccato_FF_F#4_RR3.opus
tune=0.00
</region>

<region>
end=45600
hivel=127
key=E6
lovel=0
offset=575
sample=Violins2_staccato_FF_E6_RR3.opus
tune=0.00
</region>

<region>
end=45600
hivel=127
key=E5
lovel=0
sample=Violins2_staccato_FF_E5_RR3.opus
tune=0.00
</region>

<region>
end=45600
hivel=127
key=E4
lovel=0
offset=838
sample=Violins2_staccato_FF_E4_RR3.opus
tune=0.00
</region>

<region>
end=45600
hivel=127
key=D6
lovel=0
offset=745
sample=Violins2_staccato_FF_D6_RR3.opus
tune=0.00
</region>

<region>
end=45600
hivel=127
key=D5
lovel=0
offset=2096
sample=Violins2_staccato_FF_D5_RR3.opus
tune=0.00
</region>

<region>
end=45600
hivel=127
key=D4
lovel=0
offset=1134
sample=Violins2_staccato_FF_D4_RR3.opus
tune=0.00
</region>

<region>
end=45600
hivel=127
key=D#6
lovel=0
offset=744
sample=Violins2_staccato_FF_D#6_RR3.opus
tune=0.00
</region>

<region>
end=45600
hivel=127
key=D#5
lovel=0
offset=549
sample=Violins2_staccato_FF_D#5_RR3.opus
tune=0.00
</region>

<region>
end=45600
hivel=127
key=D#4
lovel=0
sample=Violins2_staccato_FF_D#4_RR3.opus
tune=0.00
</region>

<region>
end=45600
hikey=E7
hivel=127
lokey=C7
lovel=0
offset=106
pitch_keycenter=C7
sample=Violins2_staccato_FF_C7_RR3.opus
tune=0.00
</region>

<region>
end=45600
hivel=127
key=C6
lovel=0
offset=1117
sample=Violins2_staccato_FF_C6_RR3.opus
tune=0.00
</region>

<region>
end=45600
hivel=127
key=C5
lovel=0
offset=358
sample=Violins2_staccato_FF_C5_RR3.opus
tune=0.00
</region>

<region>
end=45600
hivel=127
key=C4
lovel=0
sample=Violins2_staccato_FF_C4_RR3.opus
tune=0.00
</region>

<region>
end=45600
hivel=127
key=C#6
lovel=0
offset=537
sample=Violins2_staccato_FF_C#6_RR3.opus
tune=0.00
</region>

<region>
end=45600
hivel=127
key=C#5
lovel=0
offset=210
sample=Violins2_staccato_FF_C#5_RR3.opus
tune=0.00
</region>

<region>
end=45600
hivel=127
key=C#4
lovel=0
sample=Violins2_staccato_FF_C#4_RR3.opus
tune=0.00
</region>

<region>
end=45600
hivel=127
key=B6
lovel=0
offset=33
sample=Violins2_staccato_FF_B6_RR3.opus
tune=0.00
</region>

<region>
end=45600
hivel=127
key=B5
lovel=0
offset=474
sample=Violins2_staccato_FF_B5_RR3.opus
tune=0.00
</region>

<region>
end=45600
hivel=127
key=B4
lovel=0
offset=803
sample=Violins2_staccato_FF_B4_RR3.opus
tune=0.00
</region>

<region>
end=45600
hivel=127
key=B3
lovel=0
offset=458
sample=Violins2_staccato_FF_B3_RR3.opus
tune=0.00
</region>

<region>
end=45600
hivel=127
key=A6
lovel=0
offset=1039
sample=Violins2_staccato_FF_A6_RR3.opus
tune=0.00
</region>

<region>
end=45600
hivel=127
key=A5
lovel=0
offset=1075
sample=Violins2_staccato_FF_A5_RR3.opus
tune=0.00
</region>

<region>
end=45600
hivel=127
key=A4
lovel=0
sample=Violins2_staccato_FF_A4_RR3.opus
tune=0.00
</region>

<region>
end=45600
hivel=127
key=A3
lovel=0
offset=20
sample=Violins2_staccato_FF_A3_RR3.opus
tune=0.00
</region>

<region>
end=45600
hivel=127
key=A#6
lovel=0
offset=233
sample=Violins2_staccato_FF_A#6_RR3.opus
tune=0.00
</region>

<region>
end=45600
hivel=127
key=A#5
lovel=0
offset=431
sample=Violins2_staccato_FF_A#5_RR3.opus
tune=0.00
</region>

<region>
end=45600
hivel=127
key=A#4
lovel=0
offset=527
sample=Violins2_staccato_FF_A#4_RR3.opus
tune=0.00
</region>

<region>
end=45600
hivel=127
key=A#3
lovel=0
offset=853
sample=Violins2_staccato_FF_A#3_RR3.opus
tune=0.00
</region>
</group>

<group>
amp_veltrack=0
group_label=RR4_0-42
seq_length=4
seq_position=4
volume=-6.0
xfin_hicc1=42
xfout_hicc1=84
xfout_locc1=42

<region>
end=45600
hivel=127
key=G6
lovel=0
offset=3529
sample=Violins2_staccato_PP_G6_RR4.opus
</region>

<region>
end=45600
hivel=127
key=G5
lovel=0
offset=4812
sample=Violins2_staccato_PP_G5_RR4.opus
</region>

<region>
end=45600
hivel=127
key=G4
lovel=0
offset=3632
sample=Violins2_staccato_PP_G4_RR4.opus
</region>

<region>
end=45600
hivel=127
key=G3
lovel=0
offset=6725
sample=Violins2_staccato_PP_G3_RR4.opus
</region>

<region>
end=45600
hivel=127
key=G#6
lovel=0
sample=Violins2_staccato_PP_G#6_RR4.opus
</region>

<region>
end=45600
hivel=127
key=G#5
lovel=0
offset=4753
sample=Violins2_staccato_PP_G#5_RR4.opus
</region>

<region>
end=45600
hivel=127
key=G#4
lovel=0
offset=3772
sample=Violins2_staccato_PP_G#4_RR4.opus
</region>

<region>
end=45600
hivel=127
key=G#3
lovel=0
offset=2174
sample=Violins2_staccato_PP_G#3_RR4.opus
</region>

<region>
end=45600
hivel=127
key=F6
lovel=0
offset=4672
sample=Violins2_staccato_PP_F6_RR4.opus
</region>

<region>
end=45600
hivel=127
key=F5
lovel=0
offset=5254
sample=Violins2_staccato_PP_F5_RR4.opus
</region>

<region>
end=45600
hivel=127
key=F4
lovel=0
offset=2954
sample=Violins2_staccato_PP_F4_RR4.opus
</region>

<region>
end=45600
hivel=127
key=F#6
lovel=0
offset=3607
sample=Violins2_staccato_PP_F#6_RR4.opus
</region>

<region>
end=45600
hivel=127
key=F#5
lovel=0
offset=2961
sample=Violins2_staccato_PP_F#5_RR4.opus
</region>

<region>
end=45600
hivel=127
key=F#4
lovel=0
offset=5350
sample=Violins2_staccato_PP_F#4_RR4.opus
</region>

<region>
end=45600
hivel=127
key=E6
lovel=0
offset=1588
sample=Violins2_staccato_PP_E6_RR4.opus
</region>

<region>
end=45600
hivel=127
key=E5
lovel=0
offset=4314
sample=Violins2_staccato_PP_E5_RR4.opus
</region>

<region>
end=45600
hivel=127
key=E4
lovel=0
offset=3859
sample=Violins2_staccato_PP_E4_RR4.opus
</region>

<region>
end=45600
hivel=127
key=D6
lovel=0
offset=3835
sample=Violins2_staccato_PP_D6_RR4.opus
</region>

<region>
end=45600
hivel=127
key=D5
lovel=0
offset=4010
sample=Violins2_staccato_PP_D5_RR4.opus
</region>

<region>
end=45600
hivel=127
key=D4
lovel=0
offset=3638
sample=Violins2_staccato_PP_D4_RR4.opus
</region>

<region>
end=45600
hivel=127
key=D#6
lovel=0
offset=999
sample=Violins2_staccato_PP_D#6_RR4.opus
</region>

<region>
end=45600
hivel=127
key=D#5
lovel=0
offset=3703
sample=Violins2_staccato_PP_D#5_RR4.opus
</region>

<region>
end=45600
hivel=127
key=D#4
lovel=0
offset=602
sample=Violins2_staccato_PP_D#4_RR4.opus
</region>

<region>
end=45600
hikey=E7
hivel=127
lokey=C7
lovel=0
offset=4271
pitch_keycenter=C7
sample=Violins2_staccato_PP_C7_RR4.opus
</region>

<region>
end=45600
hivel=127
key=C6
lovel=0
offset=4285
sample=Violins2_staccato_PP_C6_RR4.opus
</region>

<region>
end=45600
hivel=127
key=C5
lovel=0
sample=Violins2_staccato_PP_C5_RR4.opus
</region>

<region>
end=45600
hivel=127
key=C4
lovel=0
offset=3226
sample=Violins2_staccato_PP_C4_RR4.opus
</region>

<region>
end=45600
hivel=127
key=C#6
lovel=0
offset=383
sample=Violins2_staccato_PP_C#6_RR4.opus
</region>

<region>
end=45600
hivel=127
key=C#5
lovel=0
offset=640
sample=Violins2_staccato_PP_C#5_RR4.opus
</region>

<region>
end=45600
hivel=127
key=C#4
lovel=0
offset=1243
sample=Violins2_staccato_PP_C#4_RR4.opus
</region>

<region>
end=45600
hivel=127
key=B6
lovel=0
offset=2430
sample=Violins2_staccato_PP_B6_RR4.opus
</region>

<region>
end=45600
hivel=127
key=B5
lovel=0
offset=5006
sample=Violins2_staccato_PP_B5_RR4.opus
</region>

<region>
end=45600
hivel=127
key=B4
lovel=0
offset=721
sample=Violins2_staccato_PP_B4_RR4.opus
</region>

<region>
end=45600
hivel=127
key=B3
lovel=0
offset=1596
sample=Violins2_staccato_PP_B3_RR4.opus
</region>

<region>
end=45600
hivel=127
key=A6
lovel=0
offset=2973
sample=Violins2_staccato_PP_A6_RR4.opus
</region>

<region>
end=45600
hivel=127
key=A5
lovel=0
offset=4398
sample=Violins2_staccato_PP_A5_RR4.opus
</region>

<region>
end=45600
hivel=127
key=A4
lovel=0
offset=3705
sample=Violins2_staccato_PP_A4_RR4.opus
</region>

<region>
end=45600
hivel=127
key=A3
lovel=0
offset=4422
sample=Violins2_staccato_PP_A3_RR4.opus
</region>

<region>
end=45600
hivel=127
key=A#6
lovel=0
offset=3307
sample=Violins2_staccato_PP_A#6_RR4.opus
</region>

<region>
end=45600
hivel=127
key=A#5
lovel=0
offset=2463
sample=Violins2_staccato_PP_A#5_RR4.opus
</region>

<region>
end=45600
hivel=127
key=A#4
lovel=0
offset=1377
sample=Violins2_staccato_PP_A#4_RR4.opus
</region>

<region>
end=45600
hivel=127
key=A#3
lovel=0
offset=2553
sample=Violins2_staccato_PP_A#3_RR4.opus
</region>
</group>

<group>
amp_veltrack=0
group_label=RR4_43-84
seq_length=4
seq_position=4
volume=-6.0
xfin_hicc1=84
xfin_locc1=43
xfout_hicc1=125
xfout_locc1=84

<region>
end=45600
hivel=127
key=G6
lovel=0
offset=1091
sample=Violins2_staccato_MF_G6_RR4.opus
</region>

<region>
end=45600
hivel=127
key=G5
lovel=0
offset=808
sample=Violins2_staccato_MF_G5_RR4.opus
</region>

<region>
end=45600
hivel=127
key=G4
lovel=0
offset=2106
sample=Violins2_staccato_MF_G4_RR4.opus
</region>

<region>
end=45600
hivel=127
key=G3
lovel=0
offset=4503
sample=Violins2_staccato_MF_G3_RR4.opus
</region>

<region>
end=45600
hivel=127
key=G#6
lovel=0
sample=Violins2_staccato_MF_G#6_RR4.opus
</region>

<region>
end=45600
hivel=127
key=G#5
lovel=0
offset=4300
sample=Violins2_staccato_MF_G#5_RR4.opus
</region>

<region>
end=45600
hivel=127
key=G#4
lovel=0
offset=612
sample=Violins2_staccato_MF_G#4_RR4.opus
</region>

<region>
end=45600
hivel=127
key=G#3
lovel=0
offset=6461
sample=Violins2_staccato_MF_G#3_RR4.opus
</region>

<region>
end=45600
hivel=127
key=F6
lovel=0
offset=1469
sample=Violins2_staccato_MF_F6_RR4.opus
</region>

<region>
end=45600
hivel=127
key=F5
lovel=0
offset=5707
sample=Violins2_staccato_MF_F5_RR4.opus
</region>

<region>
end=45600
hivel=127
key=F4
lovel=0
offset=421
sample=Violins2_staccato_MF_F4_RR4.opus
</region>

<region>
end=45600
hivel=127
key=F#6
lovel=0
offset=371
sample=Violins2_staccato_MF_F#6_RR4.opus
</region>

<region>
end=45600
hivel=127
key=F#5
lovel=0
offset=347
sample=Violins2_staccato_MF_F#5_RR4.opus
</region>

<region>
end=45600
hivel=127
key=F#4
lovel=0
offset=4611
sample=Violins2_staccato_MF_F#4_RR4.opus
</region>

<region>
end=45600
hivel=127
key=E6
lovel=0
offset=413
sample=Violins2_staccato_MF_E6_RR4.opus
</region>

<region>
end=45600
hivel=127
key=E5
lovel=0
offset=123
sample=Violins2_staccato_MF_E5_RR4.opus
</region>

<region>
end=45600
hivel=127
key=E4
lovel=0
offset=1371
sample=Violins2_staccato_MF_E4_RR4.opus
</region>

<region>
end=45600
hivel=127
key=D6
lovel=0
offset=621
sample=Violins2_staccato_MF_D6_RR4.opus
</region>

<region>
end=45600
hivel=127
key=D5
lovel=0
offset=3109
sample=Violins2_staccato_MF_D5_RR4.opus
</region>

<region>
end=45600
hivel=127
key=D4
lovel=0
offset=187
sample=Violins2_staccato_MF_D4_RR4.opus
</region>

<region>
end=45600
hivel=127
key=D#6
lovel=0
offset=364
sample=Violins2_staccato_MF_D#6_RR4.opus
</region>

<region>
end=45600
hivel=127
key=D#5
lovel=0
offset=524
sample=Violins2_staccato_MF_D#5_RR4.opus
</region>

<region>
end=45600
hivel=127
key=D#4
lovel=0
offset=594
sample=Violins2_staccato_MF_D#4_RR4.opus
</region>

<region>
end=45600
hikey=E7
hivel=127
lokey=C7
lovel=0
offset=581
pitch_keycenter=C7
sample=Violins2_staccato_MF_C7_RR4.opus
</region>

<region>
end=45600
hivel=127
key=C6
lovel=0
offset=1037
sample=Violins2_staccato_MF_C6_RR4.opus
</region>

<region>
end=45600
hivel=127
key=C5
lovel=0
offset=983
sample=Violins2_staccato_MF_C5_RR4.opus
</region>

<region>
end=45600
hivel=127
key=C4
lovel=0
offset=961
sample=Violins2_staccato_MF_C4_RR4.opus
</region>

<region>
end=45600
hivel=127
key=C#6
lovel=0
offset=420
sample=Violins2_staccato_MF_C#6_RR4.opus
</region>

<region>
end=45600
hivel=127
key=C#5
lovel=0
offset=442
sample=Violins2_staccato_MF_C#5_RR4.opus
</region>

<region>
end=45600
hivel=127
key=C#4
lovel=0
offset=377
sample=Violins2_staccato_MF_C#4_RR4.opus
</region>

<region>
end=45600
hivel=127
key=B6
lovel=0
offset=1031
sample=Violins2_staccato_MF_B6_RR4.opus
</region>

<region>
end=45600
hivel=127
key=B5
lovel=0
offset=102
sample=Violins2_staccato_MF_B5_RR4.opus
</region>

<region>
end=45600
hivel=127
key=B4
lovel=0
offset=678
sample=Violins2_staccato_MF_B4_RR4.opus
</region>

<region>
end=45600
hivel=127
key=B3
lovel=0
offset=167
sample=Violins2_staccato_MF_B3_RR4.opus
</region>

<region>
end=45600
hivel=127
key=A6
lovel=0
offset=525
sample=Violins2_staccato_MF_A6_RR4.opus
</region>

<region>
end=45600
hivel=127
key=A5
lovel=0
offset=4702
sample=Violins2_staccato_MF_A5_RR4.opus
</region>

<region>
end=45600
hivel=127
key=A4
lovel=0
offset=871
sample=Violins2_staccato_MF_A4_RR4.opus
</region>

<region>
end=45600
hivel=127
key=A3
lovel=0
offset=313
sample=Violins2_staccato_MF_A3_RR4.opus
</region>

<region>
end=45600
hivel=127
key=A#6
lovel=0
offset=419
sample=Violins2_staccato_MF_A#6_RR4.opus
</region>

<region>
end=45600
hivel=127
key=A#5
lovel=0
offset=790
sample=Violins2_staccato_MF_A#5_RR4.opus
</region>

<region>
end=45600
hivel=127
key=A#4
lovel=0
offset=52
sample=Violins2_staccato_MF_A#4_RR4.opus
</region>

<region>
end=45600
hivel=127
key=A#3
lovel=0
offset=370
sample=Violins2_staccato_MF_A#3_RR4.opus
</region>
</group>

<group>
amp_veltrack=0
group_label=RR4_85-127
seq_length=4
seq_position=4
volume=-6.0
xfin_hicc1=127
xfin_locc1=85
xfout_hicc1=127
xfout_locc1=127

<region>
end=45600
hivel=127
key=G6
lovel=0
offset=1251
sample=Violins2_staccato_FF_G6_RR4.opus
tune=0.00
</region>

<region>
end=45600
hivel=127
key=G5
lovel=0
offset=399
sample=Violins2_staccato_FF_G5_RR4.opus
tune=0.00
</region>

<region>
end=45600
hivel=127
key=G4
lovel=0
offset=398
sample=Violins2_staccato_FF_G4_RR4.opus
tune=0.00
</region>

<region>
end=45600
hivel=127
key=G3
lovel=0
offset=233
sample=Violins2_staccato_FF_G3_RR4.opus
tune=0.00
</region>

<region>
end=45600
hivel=127
key=G#6
lovel=0
offset=6
sample=Violins2_staccato_FF_G#6_RR4.opus
tune=0.00
</region>

<region>
end=45600
hivel=127
key=G#5
lovel=0
offset=847
sample=Violins2_staccato_FF_G#5_RR4.opus
tune=0.00
</region>

<region>
end=45600
hivel=127
key=G#4
lovel=0
offset=623
sample=Violins2_staccato_FF_G#4_RR4.opus
tune=0.00
</region>

<region>
end=45600
hivel=127
key=G#3
lovel=0
sample=Violins2_staccato_FF_G#3_RR4.opus
tune=0.00
</region>

<region>
end=45600
hivel=127
key=F6
lovel=0
offset=302
sample=Violins2_staccato_FF_F6_RR4.opus
tune=0.00
</region>

<region>
end=45600
hivel=127
key=F5
lovel=0
offset=72
sample=Violins2_staccato_FF_F5_RR4.opus
tune=0.00
</region>

<region>
end=45600
hivel=127
key=F4
lovel=0
offset=95
sample=Violins2_staccato_FF_F4_RR4.opus
tune=0.00
</region>

<region>
end=45600
hivel=127
key=F#6
lovel=0
sample=Violins2_staccato_FF_F#6_RR4.opus
tune=0.00
</region>

<region>
end=45600
hivel=127
key=F#5
lovel=0
sample=Violins2_staccato_FF_F#5_RR4.opus
tune=0.00
</region>

<region>
end=45600
hivel=127
key=F#4
lovel=0
offset=429
sample=Violins2_staccato_FF_F#4_RR4.opus
tune=0.00
</region>

<region>
end=45600
hivel=127
key=E6
lovel=0
offset=727
sample=Violins2_staccato_FF_E6_RR4.opus
tune=0.00
</region>

<region>
end=45600
hivel=127
key=E5
lovel=0
offset=461
sample=Violins2_staccato_FF_E5_RR4.opus
tune=0.00
</region>

<region>
end=45600
hivel=127
key=E4
lovel=0
offset=634
sample=Violins2_staccato_FF_E4_RR4.opus
tune=0.00
</region>

<region>
end=45600
hivel=127
key=D6
lovel=0
offset=358
sample=Violins2_staccato_FF_D6_RR4.opus
tune=0.00
</region>

<region>
end=45600
hivel=127
key=D5
lovel=0
offset=353
sample=Violins2_staccato_FF_D5_RR4.opus
tune=0.00
</region>

<region>
end=45600
hivel=127
key=D4
lovel=0
sample=Violins2_staccato_FF_D4_RR4.opus
tune=0.00
</region>

<region>
end=45600
hivel=127
key=D#6
lovel=0
sample=Violins2_staccato_FF_D#6_RR4.opus
tune=0.00
</region>

<region>
end=45600
hivel=127
key=D#5
lovel=0
sample=Violins2_staccato_FF_D#5_RR4.opus
tune=0.00
</region>

<region>
end=45600
hivel=127
key=D#4
lovel=0
offset=261
sample=Violins2_staccato_FF_D#4_RR4.opus
tune=0.00
</region>

<region>
end=45600
hikey=E7
hivel=127
lokey=C7
lovel=0
pitch_keycenter=C7
sample=Violins2_staccato_FF_C7_RR4.opus
tune=0.00
</region>

<region>
end=45600
hivel=127
key=C6
lovel=0
offset=1210
sample=Violins2_staccato_FF_C6_RR4.opus
tune=0.00
</region>

<region>
end=45600
hivel=127
key=C5
lovel=0
offset=39
sample=Violins2_staccato_FF_C5_RR4.opus
tune=0.00
</region>

<region>
end=45600
hivel=127
key=C4
lovel=0
sample=Violins2_staccato_FF_C4_RR4.opus
tune=0.00
</region>

<region>
end=45600
hivel=127
key=C#6
lovel=0
sample=Violins2_staccato_FF_C#6_RR4.opus
tune=0.00
</region>

<region>
end=45600
hivel=127
key=C#5
lovel=0
offset=75
sample=Violins2_staccato_FF_C#5_RR4.opus
tune=0.00
</region>

<region>
end=45600
hivel=127
key=C#4
lovel=0
offset=201
sample=Violins2_staccato_FF_C#4_RR4.opus
tune=0.00
</region>

<region>
end=45600
hivel=127
key=B6
lovel=0
offset=624
sample=Violins2_staccato_FF_B6_RR4.opus
tune=0.00
</region>

<region>
end=45600
hivel=127
key=B5
lovel=0
offset=1133
sample=Violins2_staccato_FF_B5_RR4.opus
tune=0.00
</region>

<region>
end=45600
hivel=127
key=B4
lovel=0
offset=625
sample=Violins2_staccato_FF_B4_RR4.opus
tune=0.00
</region>

<region>
end=45600
hivel=127
key=B3
lovel=0
offset=813
sample=Violins2_staccato_FF_B3_RR4.opus
tune=0.00
</region>

<region>
end=45600
hivel=127
key=A6
lovel=0
offset=123
sample=Violins2_staccato_FF_A6_RR4.opus
tune=0.00
</region>

<region>
end=45600
hivel=127
key=A5
lovel=0
sample=Violins2_staccato_FF_A5_RR4.opus
tune=0.00
</region>

<region>
end=45600
hivel=127
key=A4
lovel=0
offset=171
sample=Violins2_staccato_FF_A4_RR4.opus
tune=0.00
</region>

<region>
end=45600
hivel=127
key=A3
lovel=0
offset=972
sample=Violins2_staccato_FF_A3_RR4.opus
tune=0.00
</region>

<region>
end=45600
hivel=127
key=A#6
lovel=0
sample=Violins2_staccato_FF_A#6_RR4.opus
tune=0.00
</region>

<region>
end=45600
hivel=127
key=A#5
lovel=0
offset=309
sample=Violins2_staccato_FF_A#5_RR4.opus
tune=0.00
</region>

<region>
end=45600
hivel=127
key=A#4
lovel=0
offset=240
sample=Violins2_staccato_FF_A#4_RR4.opus
tune=0.00
</region>

<region>
end=45600
hivel=127
key=A#3
lovel=0
sample=Violins2_staccato_FF_A#3_RR4.opus
tune=0.00
</region>
</group>